{"title":"Chicka Chicka Boom Boom Song Book (1999) [DVD RIP] YeArr","uid":9518715,"size":97744414,"categoryP":"video","categoryS":"music_videos","magnet":"?xt=urn:btih:4d1ebe52c508b3278581a2730d734d046d40a011&amp;dn=Chicka+Chicka+Boom+Boom+Song+Book+%281999%29+%5BDVD+RIP%5D+YeArr&amp;tr=udp%3A%2F%2Ftracker.openbittorrent.com%3A80&amp;tr=udp%3A%2F%2Fopen.demonii.com%3A1337&amp;tr=udp%3A%2F%2Ftracker.coppersurfer.tk%3A6969&amp;tr=udp%3A%2F%2Fexodus.desync.com%3A6969","seeders":1,"leechers":0,"uploader":"YeArr","files":-1,"time":1390587801,"description":"Chicka Chicka Boom Boom (1999)\n4m 51s, 720x480\nSong By Crystal Taliefere\n\n\nimdb.com/title/tt1282032/\n\n\n\n\nDVD RIP YeArr\n\nGeneral\nComplete name                            : Chicka Chicka Boom Boom.mp4\nFormat                                   : MPEG-4\nCodec ID                                 : mp42\nFile size                                : 93.2 MiB\nDuration                                 : 4mn 51s\nOverall bit rate mode                    : Variable\nOverall bit rate                         : 2 686 Kbps\nEncoded date                             : UTC 2013-12-30 21:59:24\n\n\nVideo\nID                                       : 1\nFormat                                   : AVC\nFormat/Info                              : Advanced Video Codec\nFormat profile                           : &lt;a class=&quot;__cf_email__&quot; href=&quot;/cdn-cgi/l/email-protection&quot; data-cfemail=&quot;1e537f77705e522d302f&quot;&gt;[email&amp;#160;protected]&lt;/a&gt;&lt;script cf-hash='f9e31' type=&quot;text/javascript&quot;&gt;\n/* &lt;![CDATA[ */!function(){try{var t=&quot;currentScript&quot;in document?document.currentScript:function(){for(var t=document.getElementsByTagName(&quot;script&quot;),e=t.length;e--;)if(t[e].getAttribute(&quot;cf-hash&quot;))return t[e]}();if(t&amp;&amp;t.previousSibling){var e,r,n,i,c=t.previousSibling,a=c.getAttribute(&quot;data-cfemail&quot;);if(a){for(e=&quot;&quot;,r=parseInt(a.substr(0,2),16),n=2;a.length-n;n+=2)i=parseInt(a.substr(n,2),16)^r,e+=String.fromCharCode(i);e=document.createTextNode(e),c.parentNode.replaceChild(e,c)}}}catch(u){}}();/* ]]&gt; */&lt;/script&gt;\nFormat settings, CABAC                   : Yes\nFormat settings, ReFrames                : 4 frames\nFormat settings, GOP                     : M=4, N=33\nCodec ID                                 : avc1\nCodec ID/Info                            : Advanced Video Coding\nDuration                                 : 4mn 51s\nBit rate mode                            : Variable\nBit rate                                 : 2 460 Kbps\nMaximum bit rate                         : 6 020 Kbps\nWidth                                    : 720 pixels\nHeight                                   : 480 pixels\nDisplay aspect ratio                     : 4:3\nFrame rate mode                          : Constant\nFrame rate                               : 29.970 fps\nStandard                                 : NTSC\nColor space                              : YUV\nChroma subsampling                       : 4:2:0\nBit depth                                : 8 bits\nScan type                                : Progressive\nBits/(Pixel*Frame)                       : 0.238\nStream size                              : 85.4 MiB (92%)\nLanguage                                 : English\nEncoded date                             : UTC 2013-12-30 21:59:24\nTagged date                              : UTC 2013-12-30 21:59:24\n\nAudio\nID                                       : 2\nFormat                                   : AAC\nFormat/Info                              : Advanced Audio Codec\nFormat profile                           : LC\nCodec ID                                 : 40\nDuration                                 : 4mn 51s\nSource duration                          : 4mn 51s\nBit rate mode                            : Variable\nBit rate                                 : 221 Kbps\nMaximum bit rate                         : 328 Kbps\nChannel count                            : 2 channels\nChannel positions                        : Front: L R\nSampling rate                            : 48.0 KHz\nCompression mode                         : Lossy\nStream size                              : 7.68 MiB (8%)\nSource stream size                       : 7.68 MiB (8%)\nLanguage                                 : English\nEncoded date                             : UTC 2013-12-30 21:59:24\nTagged date                              : UTC 2013-12-30 21:59:24\n","torrent":{"xt":"urn:btih:4d1ebe52c508b3278581a2730d734d046d40a011","amp;dn":"Chicka+Chicka+Boom+Boom+Song+Book+%281999%29+%5BDVD+RIP%5D+YeArr","amp;tr":["udp%3A%2F%2Ftracker.openbittorrent.com%3A80","udp%3A%2F%2Fopen.demonii.com%3A1337","udp%3A%2F%2Ftracker.coppersurfer.tk%3A6969","udp%3A%2F%2Fexodus.desync.com%3A6969"],"infoHash":"4d1ebe52c508b3278581a2730d734d046d40a011","infoHashBuffer":{"type":"Buffer","data":[77,30,190,82,197,8,179,39,133,129,162,115,13,115,77,4,109,64,160,17]},"announce":[],"urlList":[]}}